<mxfile host="app.diagrams.net" modified="2023-10-26T01:35:35.169Z" agent="Mozilla/5.0 (Windows NT 10.0; Win64; x64) AppleWebKit/537.36 (KHTML, like Gecko) Chrome/118.0.0.0 Safari/537.36" etag="zJJV_0jM9c3piVbjtfgl" version="22.0.8" type="github">
  <diagram name="Página-1" id="AMQfe8YaLtZHtbzL9p5k">
    <mxGraphModel dx="880" dy="478" grid="1" gridSize="10" guides="1" tooltips="1" connect="1" arrows="1" fold="1" page="1" pageScale="1" pageWidth="827" pageHeight="1169" math="0" shadow="0">
      <root>
        <mxCell id="0" />
        <mxCell id="1" parent="0" />
        <mxCell id="GZzu5hSU8HV3tqt-TUfE-1" value="Voo" style="rounded=0;whiteSpace=wrap;html=1;verticalAlign=top;" parent="1" vertex="1">
          <mxGeometry x="40" y="160" width="160" height="40" as="geometry" />
        </mxCell>
        <mxCell id="GZzu5hSU8HV3tqt-TUfE-2" value="Assento" style="rounded=0;whiteSpace=wrap;html=1;" parent="1" vertex="1">
          <mxGeometry x="520" y="160" width="160" height="40" as="geometry" />
        </mxCell>
        <mxCell id="GZzu5hSU8HV3tqt-TUfE-10" value="CPF" style="text;html=1;strokeColor=none;fillColor=none;align=left;verticalAlign=middle;whiteSpace=wrap;rounded=0;" parent="1" vertex="1">
          <mxGeometry x="115" y="300" width="80" height="30" as="geometry" />
        </mxCell>
        <mxCell id="GZzu5hSU8HV3tqt-TUfE-30" value="&lt;font style=&quot;vertical-align: inherit;&quot;&gt;&lt;font style=&quot;vertical-align: inherit;&quot;&gt;&lt;font style=&quot;vertical-align: inherit;&quot;&gt;&lt;font style=&quot;vertical-align: inherit;&quot;&gt;&lt;font style=&quot;vertical-align: inherit;&quot;&gt;&lt;font style=&quot;vertical-align: inherit;&quot;&gt;idvoo&lt;/font&gt;&lt;/font&gt;&lt;/font&gt;&lt;/font&gt;&lt;/font&gt;&lt;/font&gt;" style="text;html=1;strokeColor=none;fillColor=none;align=left;verticalAlign=middle;whiteSpace=wrap;rounded=0;" parent="1" vertex="1">
          <mxGeometry x="78.75" y="30" width="40" height="20" as="geometry" />
        </mxCell>
        <mxCell id="GZzu5hSU8HV3tqt-TUfE-41" value="" style="ellipse;whiteSpace=wrap;html=1;aspect=fixed;fillColor=#000000;" parent="1" vertex="1">
          <mxGeometry x="101.25" y="310" width="10" height="10" as="geometry" />
        </mxCell>
        <mxCell id="GZzu5hSU8HV3tqt-TUfE-44" value="" style="ellipse;whiteSpace=wrap;html=1;aspect=fixed;" parent="1" vertex="1">
          <mxGeometry x="101.25" y="330" width="10" height="10" as="geometry" />
        </mxCell>
        <mxCell id="GZzu5hSU8HV3tqt-TUfE-45" value="" style="ellipse;whiteSpace=wrap;html=1;aspect=fixed;" parent="1" vertex="1">
          <mxGeometry x="101.25" y="350" width="10" height="10" as="geometry" />
        </mxCell>
        <mxCell id="GZzu5hSU8HV3tqt-TUfE-46" value="" style="ellipse;whiteSpace=wrap;html=1;aspect=fixed;" parent="1" vertex="1">
          <mxGeometry x="101.25" y="370" width="10" height="10" as="geometry" />
        </mxCell>
        <mxCell id="GZzu5hSU8HV3tqt-TUfE-47" value="Nome" style="text;html=1;strokeColor=none;fillColor=none;align=left;verticalAlign=middle;whiteSpace=wrap;rounded=0;" parent="1" vertex="1">
          <mxGeometry x="118.75" y="320" width="60" height="30" as="geometry" />
        </mxCell>
        <mxCell id="GZzu5hSU8HV3tqt-TUfE-48" value="E-mail" style="text;html=1;strokeColor=none;fillColor=none;align=left;verticalAlign=middle;whiteSpace=wrap;rounded=0;" parent="1" vertex="1">
          <mxGeometry x="118.75" y="360" width="60" height="30" as="geometry" />
        </mxCell>
        <mxCell id="GZzu5hSU8HV3tqt-TUfE-49" value="Telefone" style="text;html=1;strokeColor=none;fillColor=none;align=left;verticalAlign=middle;whiteSpace=wrap;rounded=0;" parent="1" vertex="1">
          <mxGeometry x="118.75" y="340" width="60" height="30" as="geometry" />
        </mxCell>
        <mxCell id="GZzu5hSU8HV3tqt-TUfE-53" value="" style="ellipse;whiteSpace=wrap;html=1;aspect=fixed;" parent="1" vertex="1">
          <mxGeometry x="101.25" y="390" width="10" height="10" as="geometry" />
        </mxCell>
        <mxCell id="GZzu5hSU8HV3tqt-TUfE-54" value="" style="ellipse;whiteSpace=wrap;html=1;aspect=fixed;" parent="1" vertex="1">
          <mxGeometry x="130" y="410" width="10" height="10" as="geometry" />
        </mxCell>
        <mxCell id="GZzu5hSU8HV3tqt-TUfE-57" value="Endereço" style="text;html=1;strokeColor=none;fillColor=none;align=left;verticalAlign=middle;whiteSpace=wrap;rounded=0;" parent="1" vertex="1">
          <mxGeometry x="118.75" y="375" width="60" height="30" as="geometry" />
        </mxCell>
        <mxCell id="GZzu5hSU8HV3tqt-TUfE-96" value="" style="edgeStyle=none;rounded=0;orthogonalLoop=1;jettySize=auto;html=1;" parent="1" source="GZzu5hSU8HV3tqt-TUfE-94" target="GZzu5hSU8HV3tqt-TUfE-57" edge="1">
          <mxGeometry relative="1" as="geometry" />
        </mxCell>
        <mxCell id="GZzu5hSU8HV3tqt-TUfE-94" value="Rua" style="text;html=1;strokeColor=none;fillColor=none;align=left;verticalAlign=middle;whiteSpace=wrap;rounded=0;" parent="1" vertex="1">
          <mxGeometry x="140" y="400" width="60" height="30" as="geometry" />
        </mxCell>
        <mxCell id="GZzu5hSU8HV3tqt-TUfE-97" value="N°" style="text;html=1;strokeColor=none;fillColor=none;align=left;verticalAlign=middle;whiteSpace=wrap;rounded=0;" parent="1" vertex="1">
          <mxGeometry x="140" y="420" width="60" height="30" as="geometry" />
        </mxCell>
        <mxCell id="GZzu5hSU8HV3tqt-TUfE-98" value="Complemento" style="text;html=1;strokeColor=none;fillColor=none;align=left;verticalAlign=middle;whiteSpace=wrap;rounded=0;" parent="1" vertex="1">
          <mxGeometry x="140" y="440" width="60" height="30" as="geometry" />
        </mxCell>
        <mxCell id="GZzu5hSU8HV3tqt-TUfE-99" value="Bairro" style="text;html=1;strokeColor=none;fillColor=none;align=left;verticalAlign=middle;whiteSpace=wrap;rounded=0;" parent="1" vertex="1">
          <mxGeometry x="140" y="460" width="60" height="30" as="geometry" />
        </mxCell>
        <mxCell id="GZzu5hSU8HV3tqt-TUfE-100" value="" style="ellipse;whiteSpace=wrap;html=1;aspect=fixed;" parent="1" vertex="1">
          <mxGeometry x="130" y="430" width="10" height="10" as="geometry" />
        </mxCell>
        <mxCell id="GZzu5hSU8HV3tqt-TUfE-101" value="" style="ellipse;whiteSpace=wrap;html=1;aspect=fixed;" parent="1" vertex="1">
          <mxGeometry x="130" y="450" width="10" height="10" as="geometry" />
        </mxCell>
        <mxCell id="GZzu5hSU8HV3tqt-TUfE-102" value="" style="ellipse;whiteSpace=wrap;html=1;aspect=fixed;" parent="1" vertex="1">
          <mxGeometry x="130" y="470" width="10" height="10" as="geometry" />
        </mxCell>
        <mxCell id="GZzu5hSU8HV3tqt-TUfE-105" value="Cep" style="text;html=1;strokeColor=none;fillColor=none;align=left;verticalAlign=middle;whiteSpace=wrap;rounded=0;" parent="1" vertex="1">
          <mxGeometry x="140" y="480" width="60" height="30" as="geometry" />
        </mxCell>
        <mxCell id="GZzu5hSU8HV3tqt-TUfE-106" value="Cidade" style="text;html=1;strokeColor=none;fillColor=none;align=left;verticalAlign=middle;whiteSpace=wrap;rounded=0;" parent="1" vertex="1">
          <mxGeometry x="140" y="500" width="60" height="30" as="geometry" />
        </mxCell>
        <mxCell id="GZzu5hSU8HV3tqt-TUfE-107" value="Estado" style="text;html=1;strokeColor=none;fillColor=none;align=left;verticalAlign=middle;whiteSpace=wrap;rounded=0;" parent="1" vertex="1">
          <mxGeometry x="140" y="520" width="60" height="30" as="geometry" />
        </mxCell>
        <mxCell id="GZzu5hSU8HV3tqt-TUfE-108" value="" style="ellipse;whiteSpace=wrap;html=1;aspect=fixed;" parent="1" vertex="1">
          <mxGeometry x="130" y="490" width="10" height="10" as="geometry" />
        </mxCell>
        <mxCell id="GZzu5hSU8HV3tqt-TUfE-109" value="" style="ellipse;whiteSpace=wrap;html=1;aspect=fixed;" parent="1" vertex="1">
          <mxGeometry x="130" y="510" width="10" height="10" as="geometry" />
        </mxCell>
        <mxCell id="GZzu5hSU8HV3tqt-TUfE-110" value="" style="ellipse;whiteSpace=wrap;html=1;aspect=fixed;" parent="1" vertex="1">
          <mxGeometry x="130" y="530" width="10" height="10" as="geometry" />
        </mxCell>
        <mxCell id="GZzu5hSU8HV3tqt-TUfE-111" value="" style="ellipse;whiteSpace=wrap;html=1;aspect=fixed;fillColor=#000000;" parent="1" vertex="1">
          <mxGeometry x="360" y="420" width="10" height="10" as="geometry" />
        </mxCell>
        <mxCell id="GZzu5hSU8HV3tqt-TUfE-112" value="" style="ellipse;whiteSpace=wrap;html=1;aspect=fixed;" parent="1" vertex="1">
          <mxGeometry x="360" y="440" width="10" height="10" as="geometry" />
        </mxCell>
        <mxCell id="GZzu5hSU8HV3tqt-TUfE-113" value="Data de Nascimento" style="text;html=1;strokeColor=none;fillColor=none;align=left;verticalAlign=middle;whiteSpace=wrap;rounded=0;" parent="1" vertex="1">
          <mxGeometry x="371.25" y="430" width="120" height="30" as="geometry" />
        </mxCell>
        <mxCell id="GZzu5hSU8HV3tqt-TUfE-114" value="Nome" style="text;html=1;strokeColor=none;fillColor=none;align=left;verticalAlign=middle;whiteSpace=wrap;rounded=0;" parent="1" vertex="1">
          <mxGeometry x="371.25" y="410" width="60" height="30" as="geometry" />
        </mxCell>
        <mxCell id="GZzu5hSU8HV3tqt-TUfE-133" value="Hora" style="text;html=1;strokeColor=none;fillColor=none;align=left;verticalAlign=middle;whiteSpace=wrap;rounded=0;" parent="1" vertex="1">
          <mxGeometry x="320" y="330" width="120" height="30" as="geometry" />
        </mxCell>
        <mxCell id="GZzu5hSU8HV3tqt-TUfE-134" value="Data" style="text;html=1;align=left;verticalAlign=middle;resizable=0;points=[];autosize=1;strokeColor=none;fillColor=none;" parent="1" vertex="1">
          <mxGeometry x="320" y="300" width="50" height="30" as="geometry" />
        </mxCell>
        <mxCell id="GZzu5hSU8HV3tqt-TUfE-158" value="" style="endArrow=none;html=1;rounded=0;" parent="1" edge="1">
          <mxGeometry width="50" height="50" relative="1" as="geometry">
            <mxPoint x="40" y="170" as="sourcePoint" />
            <mxPoint x="40" y="40" as="targetPoint" />
          </mxGeometry>
        </mxCell>
        <mxCell id="GZzu5hSU8HV3tqt-TUfE-169" value="" style="endArrow=none;html=1;rounded=0;" parent="1" edge="1">
          <mxGeometry width="50" height="50" relative="1" as="geometry">
            <mxPoint x="349.25" y="400" as="sourcePoint" />
            <mxPoint x="348" y="450" as="targetPoint" />
          </mxGeometry>
        </mxCell>
        <mxCell id="GZzu5hSU8HV3tqt-TUfE-179" value="" style="endArrow=none;html=1;rounded=0;" parent="1" edge="1">
          <mxGeometry width="50" height="50" relative="1" as="geometry">
            <mxPoint x="118.75" y="540" as="sourcePoint" />
            <mxPoint x="128.75" y="540" as="targetPoint" />
          </mxGeometry>
        </mxCell>
        <mxCell id="GZzu5hSU8HV3tqt-TUfE-180" value="" style="endArrow=none;html=1;rounded=0;" parent="1" edge="1">
          <mxGeometry width="50" height="50" relative="1" as="geometry">
            <mxPoint x="91.25" y="320" as="sourcePoint" />
            <mxPoint x="101.25" y="320" as="targetPoint" />
          </mxGeometry>
        </mxCell>
        <mxCell id="GZzu5hSU8HV3tqt-TUfE-181" value="" style="endArrow=none;html=1;rounded=0;" parent="1" edge="1">
          <mxGeometry width="50" height="50" relative="1" as="geometry">
            <mxPoint x="350" y="449" as="sourcePoint" />
            <mxPoint x="360" y="449" as="targetPoint" />
          </mxGeometry>
        </mxCell>
        <mxCell id="GZzu5hSU8HV3tqt-TUfE-182" value="" style="endArrow=none;html=1;rounded=0;" parent="1" edge="1">
          <mxGeometry width="50" height="50" relative="1" as="geometry">
            <mxPoint x="350" y="429" as="sourcePoint" />
            <mxPoint x="360" y="429" as="targetPoint" />
          </mxGeometry>
        </mxCell>
        <mxCell id="GZzu5hSU8HV3tqt-TUfE-183" value="" style="endArrow=none;html=1;rounded=0;" parent="1" edge="1">
          <mxGeometry width="50" height="50" relative="1" as="geometry">
            <mxPoint x="120" y="519" as="sourcePoint" />
            <mxPoint x="130" y="519" as="targetPoint" />
          </mxGeometry>
        </mxCell>
        <mxCell id="GZzu5hSU8HV3tqt-TUfE-184" value="" style="endArrow=none;html=1;rounded=0;" parent="1" edge="1">
          <mxGeometry width="50" height="50" relative="1" as="geometry">
            <mxPoint x="118.75" y="499" as="sourcePoint" />
            <mxPoint x="128.75" y="499" as="targetPoint" />
          </mxGeometry>
        </mxCell>
        <mxCell id="GZzu5hSU8HV3tqt-TUfE-185" value="" style="endArrow=none;html=1;rounded=0;" parent="1" edge="1">
          <mxGeometry width="50" height="50" relative="1" as="geometry">
            <mxPoint x="91.25" y="380" as="sourcePoint" />
            <mxPoint x="101.25" y="380" as="targetPoint" />
          </mxGeometry>
        </mxCell>
        <mxCell id="GZzu5hSU8HV3tqt-TUfE-186" value="" style="endArrow=none;html=1;rounded=0;" parent="1" edge="1">
          <mxGeometry width="50" height="50" relative="1" as="geometry">
            <mxPoint x="91.25" y="399" as="sourcePoint" />
            <mxPoint x="101.25" y="399" as="targetPoint" />
          </mxGeometry>
        </mxCell>
        <mxCell id="GZzu5hSU8HV3tqt-TUfE-187" value="" style="endArrow=none;html=1;rounded=0;" parent="1" edge="1">
          <mxGeometry width="50" height="50" relative="1" as="geometry">
            <mxPoint x="91.25" y="360" as="sourcePoint" />
            <mxPoint x="101.25" y="360" as="targetPoint" />
          </mxGeometry>
        </mxCell>
        <mxCell id="GZzu5hSU8HV3tqt-TUfE-188" value="" style="endArrow=none;html=1;rounded=0;" parent="1" edge="1">
          <mxGeometry width="50" height="50" relative="1" as="geometry">
            <mxPoint x="91.25" y="339" as="sourcePoint" />
            <mxPoint x="101.25" y="339" as="targetPoint" />
          </mxGeometry>
        </mxCell>
        <mxCell id="GZzu5hSU8HV3tqt-TUfE-189" value="" style="endArrow=none;html=1;rounded=0;" parent="1" edge="1">
          <mxGeometry width="50" height="50" relative="1" as="geometry">
            <mxPoint x="118.75" y="479" as="sourcePoint" />
            <mxPoint x="128.75" y="479" as="targetPoint" />
          </mxGeometry>
        </mxCell>
        <mxCell id="GZzu5hSU8HV3tqt-TUfE-190" value="" style="endArrow=none;html=1;rounded=0;" parent="1" edge="1">
          <mxGeometry width="50" height="50" relative="1" as="geometry">
            <mxPoint x="120" y="459" as="sourcePoint" />
            <mxPoint x="130" y="459" as="targetPoint" />
          </mxGeometry>
        </mxCell>
        <mxCell id="GZzu5hSU8HV3tqt-TUfE-191" value="" style="endArrow=none;html=1;rounded=0;" parent="1" edge="1">
          <mxGeometry width="50" height="50" relative="1" as="geometry">
            <mxPoint x="118.75" y="439" as="sourcePoint" />
            <mxPoint x="128.5" y="439" as="targetPoint" />
          </mxGeometry>
        </mxCell>
        <mxCell id="GZzu5hSU8HV3tqt-TUfE-192" value="" style="endArrow=none;html=1;rounded=0;" parent="1" edge="1">
          <mxGeometry width="50" height="50" relative="1" as="geometry">
            <mxPoint x="118.75" y="420" as="sourcePoint" />
            <mxPoint x="128.75" y="420" as="targetPoint" />
          </mxGeometry>
        </mxCell>
        <mxCell id="GZzu5hSU8HV3tqt-TUfE-193" value="" style="endArrow=none;html=1;rounded=0;" parent="1" edge="1">
          <mxGeometry width="50" height="50" relative="1" as="geometry">
            <mxPoint x="90" y="290" as="sourcePoint" />
            <mxPoint x="90.5" y="400" as="targetPoint" />
          </mxGeometry>
        </mxCell>
        <mxCell id="GZzu5hSU8HV3tqt-TUfE-195" value="" style="endArrow=none;html=1;rounded=0;" parent="1" edge="1">
          <mxGeometry width="50" height="50" relative="1" as="geometry">
            <mxPoint x="90" y="290" as="sourcePoint" />
            <mxPoint x="140" y="290" as="targetPoint" />
            <Array as="points">
              <mxPoint x="100" y="290" />
            </Array>
          </mxGeometry>
        </mxCell>
        <mxCell id="GZzu5hSU8HV3tqt-TUfE-197" value="" style="endArrow=none;html=1;rounded=0;" parent="1" edge="1">
          <mxGeometry width="50" height="50" relative="1" as="geometry">
            <mxPoint x="520" y="120" as="sourcePoint" />
            <mxPoint x="520" y="160" as="targetPoint" />
          </mxGeometry>
        </mxCell>
        <mxCell id="GZzu5hSU8HV3tqt-TUfE-198" value="" style="endArrow=none;html=1;rounded=0;" parent="1" edge="1">
          <mxGeometry width="50" height="50" relative="1" as="geometry">
            <mxPoint x="380" y="400" as="sourcePoint" />
            <mxPoint x="350" y="400" as="targetPoint" />
          </mxGeometry>
        </mxCell>
        <mxCell id="GZzu5hSU8HV3tqt-TUfE-201" value="" style="endArrow=none;html=1;rounded=0;" parent="1" edge="1">
          <mxGeometry width="50" height="50" relative="1" as="geometry">
            <mxPoint x="520" y="320" as="sourcePoint" />
            <mxPoint x="520" y="360" as="targetPoint" />
          </mxGeometry>
        </mxCell>
        <mxCell id="GZzu5hSU8HV3tqt-TUfE-202" value="" style="endArrow=none;html=1;rounded=0;" parent="1" edge="1">
          <mxGeometry width="50" height="50" relative="1" as="geometry">
            <mxPoint x="120" y="420" as="sourcePoint" />
            <mxPoint x="119" y="540" as="targetPoint" />
          </mxGeometry>
        </mxCell>
        <mxCell id="tDjwhSIKy4RPYenTUT4g-1" value="" style="endArrow=oval;html=1;rounded=0;endFill=1;" edge="1" parent="1">
          <mxGeometry width="50" height="50" relative="1" as="geometry">
            <mxPoint x="40" y="40" as="sourcePoint" />
            <mxPoint x="67.5" y="40" as="targetPoint" />
          </mxGeometry>
        </mxCell>
        <mxCell id="tDjwhSIKy4RPYenTUT4g-2" value="" style="endArrow=oval;html=1;rounded=0;endFill=0;" edge="1" parent="1">
          <mxGeometry width="50" height="50" relative="1" as="geometry">
            <mxPoint x="40" y="59" as="sourcePoint" />
            <mxPoint x="67.5" y="59" as="targetPoint" />
          </mxGeometry>
        </mxCell>
        <mxCell id="tDjwhSIKy4RPYenTUT4g-3" value="" style="endArrow=oval;html=1;rounded=0;endFill=0;" edge="1" parent="1">
          <mxGeometry width="50" height="50" relative="1" as="geometry">
            <mxPoint x="40" y="79" as="sourcePoint" />
            <mxPoint x="67.5" y="79" as="targetPoint" />
          </mxGeometry>
        </mxCell>
        <mxCell id="tDjwhSIKy4RPYenTUT4g-4" value="" style="endArrow=oval;html=1;rounded=0;endFill=0;" edge="1" parent="1">
          <mxGeometry width="50" height="50" relative="1" as="geometry">
            <mxPoint x="40" y="100" as="sourcePoint" />
            <mxPoint x="67.5" y="100" as="targetPoint" />
          </mxGeometry>
        </mxCell>
        <mxCell id="tDjwhSIKy4RPYenTUT4g-5" value="" style="endArrow=oval;html=1;rounded=0;endFill=0;" edge="1" parent="1">
          <mxGeometry width="50" height="50" relative="1" as="geometry">
            <mxPoint x="40" y="120" as="sourcePoint" />
            <mxPoint x="67.5" y="120" as="targetPoint" />
          </mxGeometry>
        </mxCell>
        <mxCell id="tDjwhSIKy4RPYenTUT4g-6" value="&lt;font style=&quot;vertical-align: inherit;&quot;&gt;&lt;font style=&quot;vertical-align: inherit;&quot;&gt;&lt;font style=&quot;vertical-align: inherit;&quot;&gt;&lt;font style=&quot;vertical-align: inherit;&quot;&gt;numeroaviao&lt;/font&gt;&lt;/font&gt;&lt;/font&gt;&lt;/font&gt;" style="text;html=1;strokeColor=none;fillColor=none;align=left;verticalAlign=middle;whiteSpace=wrap;rounded=0;" vertex="1" parent="1">
          <mxGeometry x="78.75" y="50" width="40" height="20" as="geometry" />
        </mxCell>
        <mxCell id="tDjwhSIKy4RPYenTUT4g-7" value="&lt;font style=&quot;vertical-align: inherit;&quot;&gt;&lt;font style=&quot;vertical-align: inherit;&quot;&gt;&lt;font style=&quot;vertical-align: inherit;&quot;&gt;&lt;font style=&quot;vertical-align: inherit;&quot;&gt;cidadeorigem&lt;/font&gt;&lt;/font&gt;&lt;/font&gt;&lt;/font&gt;" style="text;html=1;strokeColor=none;fillColor=none;align=left;verticalAlign=middle;whiteSpace=wrap;rounded=0;" vertex="1" parent="1">
          <mxGeometry x="78.75" y="70" width="40" height="20" as="geometry" />
        </mxCell>
        <mxCell id="tDjwhSIKy4RPYenTUT4g-8" value="&lt;font style=&quot;vertical-align: inherit;&quot;&gt;&lt;font style=&quot;vertical-align: inherit;&quot;&gt;&lt;font style=&quot;vertical-align: inherit;&quot;&gt;&lt;font style=&quot;vertical-align: inherit;&quot;&gt;cidadedestino&lt;/font&gt;&lt;/font&gt;&lt;/font&gt;&lt;/font&gt;" style="text;html=1;strokeColor=none;fillColor=none;align=left;verticalAlign=middle;whiteSpace=wrap;rounded=0;" vertex="1" parent="1">
          <mxGeometry x="78.75" y="90" width="40" height="20" as="geometry" />
        </mxCell>
        <mxCell id="tDjwhSIKy4RPYenTUT4g-9" value="&lt;font style=&quot;vertical-align: inherit;&quot;&gt;&lt;font style=&quot;vertical-align: inherit;&quot;&gt;&lt;font style=&quot;vertical-align: inherit;&quot;&gt;&lt;font style=&quot;vertical-align: inherit;&quot;&gt;datavoo&lt;/font&gt;&lt;/font&gt;&lt;/font&gt;&lt;/font&gt;" style="text;html=1;strokeColor=none;fillColor=none;align=left;verticalAlign=middle;whiteSpace=wrap;rounded=0;" vertex="1" parent="1">
          <mxGeometry x="78.75" y="110" width="40" height="20" as="geometry" />
        </mxCell>
        <mxCell id="tDjwhSIKy4RPYenTUT4g-10" value="" style="endArrow=oval;html=1;rounded=0;endFill=0;" edge="1" parent="1">
          <mxGeometry width="50" height="50" relative="1" as="geometry">
            <mxPoint x="40" y="140" as="sourcePoint" />
            <mxPoint x="67.5" y="140" as="targetPoint" />
          </mxGeometry>
        </mxCell>
        <mxCell id="tDjwhSIKy4RPYenTUT4g-11" value="&lt;font style=&quot;vertical-align: inherit;&quot;&gt;&lt;font style=&quot;vertical-align: inherit;&quot;&gt;&lt;font style=&quot;vertical-align: inherit;&quot;&gt;&lt;font style=&quot;vertical-align: inherit;&quot;&gt;&lt;font style=&quot;vertical-align: inherit;&quot;&gt;&lt;font style=&quot;vertical-align: inherit;&quot;&gt;horavoo&lt;/font&gt;&lt;/font&gt;&lt;/font&gt;&lt;/font&gt;&lt;/font&gt;&lt;/font&gt;" style="text;html=1;strokeColor=none;fillColor=none;align=left;verticalAlign=middle;whiteSpace=wrap;rounded=0;" vertex="1" parent="1">
          <mxGeometry x="78.75" y="130" width="40" height="20" as="geometry" />
        </mxCell>
        <mxCell id="tDjwhSIKy4RPYenTUT4g-12" value="" style="endArrow=oval;html=1;rounded=0;endFill=1;" edge="1" parent="1">
          <mxGeometry width="50" height="50" relative="1" as="geometry">
            <mxPoint x="520" y="120" as="sourcePoint" />
            <mxPoint x="550" y="119.5" as="targetPoint" />
          </mxGeometry>
        </mxCell>
        <mxCell id="tDjwhSIKy4RPYenTUT4g-13" value="" style="endArrow=oval;html=1;rounded=0;endFill=0;" edge="1" parent="1">
          <mxGeometry width="50" height="50" relative="1" as="geometry">
            <mxPoint x="520" y="140" as="sourcePoint" />
            <mxPoint x="550" y="139.5" as="targetPoint" />
          </mxGeometry>
        </mxCell>
        <mxCell id="tDjwhSIKy4RPYenTUT4g-14" value="&lt;font style=&quot;vertical-align: inherit;&quot;&gt;&lt;font style=&quot;vertical-align: inherit;&quot;&gt;&lt;font style=&quot;vertical-align: inherit;&quot;&gt;&lt;font style=&quot;vertical-align: inherit;&quot;&gt;&lt;font style=&quot;vertical-align: inherit;&quot;&gt;&lt;font style=&quot;vertical-align: inherit;&quot;&gt;&lt;font style=&quot;vertical-align: inherit;&quot;&gt;&lt;font style=&quot;vertical-align: inherit;&quot;&gt;idassento&lt;/font&gt;&lt;/font&gt;&lt;/font&gt;&lt;/font&gt;&lt;/font&gt;&lt;/font&gt;&lt;/font&gt;&lt;/font&gt;" style="text;html=1;strokeColor=none;fillColor=none;align=left;verticalAlign=middle;whiteSpace=wrap;rounded=0;" vertex="1" parent="1">
          <mxGeometry x="560" y="110" width="40" height="20" as="geometry" />
        </mxCell>
        <mxCell id="tDjwhSIKy4RPYenTUT4g-15" value="&lt;font style=&quot;vertical-align: inherit;&quot;&gt;&lt;font style=&quot;vertical-align: inherit;&quot;&gt;&lt;font style=&quot;vertical-align: inherit;&quot;&gt;&lt;font style=&quot;vertical-align: inherit;&quot;&gt;&lt;font style=&quot;vertical-align: inherit;&quot;&gt;&lt;font style=&quot;vertical-align: inherit;&quot;&gt;&lt;font style=&quot;vertical-align: inherit;&quot;&gt;&lt;font style=&quot;vertical-align: inherit;&quot;&gt;&lt;font style=&quot;vertical-align: inherit;&quot;&gt;&lt;font style=&quot;vertical-align: inherit;&quot;&gt;quantidade&lt;/font&gt;&lt;/font&gt;&lt;/font&gt;&lt;/font&gt;&lt;/font&gt;&lt;/font&gt;&lt;/font&gt;&lt;/font&gt;&lt;/font&gt;&lt;/font&gt;" style="text;html=1;strokeColor=none;fillColor=none;align=left;verticalAlign=middle;whiteSpace=wrap;rounded=0;" vertex="1" parent="1">
          <mxGeometry x="560" y="130" width="40" height="20" as="geometry" />
        </mxCell>
        <mxCell id="tDjwhSIKy4RPYenTUT4g-16" value="&lt;font style=&quot;vertical-align: inherit;&quot;&gt;&lt;font style=&quot;vertical-align: inherit;&quot;&gt;possui&lt;/font&gt;&lt;/font&gt;" style="shape=rhombus;perimeter=rhombusPerimeter;whiteSpace=wrap;html=1;align=center;" vertex="1" parent="1">
          <mxGeometry x="305" y="150" width="120" height="60" as="geometry" />
        </mxCell>
        <mxCell id="tDjwhSIKy4RPYenTUT4g-17" value="&lt;font style=&quot;vertical-align: inherit;&quot;&gt;&lt;font style=&quot;vertical-align: inherit;&quot;&gt;Reserva&lt;/font&gt;&lt;/font&gt;" style="rounded=0;whiteSpace=wrap;html=1;" vertex="1" parent="1">
          <mxGeometry x="520" y="360" width="160" height="40" as="geometry" />
        </mxCell>
        <mxCell id="tDjwhSIKy4RPYenTUT4g-18" value="" style="endArrow=oval;html=1;rounded=0;endFill=1;" edge="1" parent="1">
          <mxGeometry width="50" height="50" relative="1" as="geometry">
            <mxPoint x="520" y="320" as="sourcePoint" />
            <mxPoint x="550" y="320" as="targetPoint" />
          </mxGeometry>
        </mxCell>
        <mxCell id="tDjwhSIKy4RPYenTUT4g-19" value="" style="endArrow=oval;html=1;rounded=0;endFill=0;" edge="1" parent="1">
          <mxGeometry width="50" height="50" relative="1" as="geometry">
            <mxPoint x="520" y="345" as="sourcePoint" />
            <mxPoint x="550" y="344.5" as="targetPoint" />
          </mxGeometry>
        </mxCell>
        <mxCell id="tDjwhSIKy4RPYenTUT4g-20" value="&lt;font style=&quot;vertical-align: inherit;&quot;&gt;&lt;font style=&quot;vertical-align: inherit;&quot;&gt;&lt;font style=&quot;vertical-align: inherit;&quot;&gt;&lt;font style=&quot;vertical-align: inherit;&quot;&gt;&lt;font style=&quot;vertical-align: inherit;&quot;&gt;&lt;font style=&quot;vertical-align: inherit;&quot;&gt;&lt;font style=&quot;vertical-align: inherit;&quot;&gt;&lt;font style=&quot;vertical-align: inherit;&quot;&gt;&lt;font style=&quot;vertical-align: inherit;&quot;&gt;&lt;font style=&quot;vertical-align: inherit;&quot;&gt;data&lt;/font&gt;&lt;/font&gt;&lt;/font&gt;&lt;/font&gt;&lt;/font&gt;&lt;/font&gt;&lt;/font&gt;&lt;/font&gt;&lt;/font&gt;&lt;/font&gt;" style="text;html=1;strokeColor=none;fillColor=none;align=left;verticalAlign=middle;whiteSpace=wrap;rounded=0;" vertex="1" parent="1">
          <mxGeometry x="560" y="310" width="40" height="20" as="geometry" />
        </mxCell>
        <mxCell id="tDjwhSIKy4RPYenTUT4g-21" value="&lt;font style=&quot;vertical-align: inherit;&quot;&gt;&lt;font style=&quot;vertical-align: inherit;&quot;&gt;&lt;font style=&quot;vertical-align: inherit;&quot;&gt;&lt;font style=&quot;vertical-align: inherit;&quot;&gt;&lt;font style=&quot;vertical-align: inherit;&quot;&gt;&lt;font style=&quot;vertical-align: inherit;&quot;&gt;&lt;font style=&quot;vertical-align: inherit;&quot;&gt;&lt;font style=&quot;vertical-align: inherit;&quot;&gt;&lt;font style=&quot;vertical-align: inherit;&quot;&gt;&lt;font style=&quot;vertical-align: inherit;&quot;&gt;hora&lt;/font&gt;&lt;/font&gt;&lt;/font&gt;&lt;/font&gt;&lt;/font&gt;&lt;/font&gt;&lt;/font&gt;&lt;/font&gt;&lt;/font&gt;&lt;/font&gt;" style="text;html=1;strokeColor=none;fillColor=none;align=left;verticalAlign=middle;whiteSpace=wrap;rounded=0;" vertex="1" parent="1">
          <mxGeometry x="560" y="335" width="40" height="20" as="geometry" />
        </mxCell>
        <mxCell id="tDjwhSIKy4RPYenTUT4g-22" value="&lt;font style=&quot;vertical-align: inherit;&quot;&gt;&lt;font style=&quot;vertical-align: inherit;&quot;&gt;tem&lt;/font&gt;&lt;/font&gt;" style="shape=rhombus;perimeter=rhombusPerimeter;whiteSpace=wrap;html=1;align=center;" vertex="1" parent="1">
          <mxGeometry x="540" y="240" width="120" height="60" as="geometry" />
        </mxCell>
      </root>
    </mxGraphModel>
  </diagram>
</mxfile>
